<svg xmlns="http://www.w3.org/2000/svg" width="753" height="151.3" viewBox="0 0 564.8 113.5"><defs><clipPath id="a"><path d="M0 1h97v112.4H0zm0 0"/></clipPath><clipPath id="b"><path d="M525 59h39.7v52H525zm0 0"/></clipPath></defs><path d="M93.6 63.1c-.2 5.3-1 10-2.3 14.2A35 35 0 0 1 85.9 88c-4.3 5.7-9.5 8.5-13 10.4l-12.2 6.1V63.1h32.9M35.4 63.1v41.4l-12.2-6.1c-3.5-1.9-8.7-4.7-13-10.4a35 35 0 0 1-5.4-10.7C3.5 73 2.7 68.3 2.5 63h32.9" fill="none" stroke-width=".2" stroke="#fd0" stroke-miterlimit="10"/><path d="M93.6 4.1h-33v33.8h33zm0 0M35.4 4.1h-33v33.8h33zm0 0" fill="none" stroke-width=".2" stroke="#161012" stroke-miterlimit="10"/><g clip-path="url(#a)"><path d="M58.2 40.3V1.7H37.8v38.6H0V60.7h37.8v47.7l10.2 5.1 10.2-5V60.6h37.9V40.3H58.2" fill="#fff"/></g><path d="M0 40.3h37.8V1.7H0zm0 0M58.2 40.3h37.9V1.7H58.2zm0 0M37.8 60.7H0c.2 27.7 14.4 35.7 22 39.8l15.8 8V60.6M58.2 60.7v47.7l15.8-7.9c7.7-4.1 21.8-12.1 22-39.8H58.3" fill="#ef4035"/><path d="M71.2 50.8l.8-1-1-1.1-1 1.2.8.9c0 .5 0 4.5-2.4 6 0 0 .9.2 2 0 0 0 .1 1 .6 2.2.5-1.2.7-2.2.7-2.2 1.1.2 2 0 2 0-2.5-1.5-2.5-5.5-2.5-6M77.4 43.8l.8-.9-1-1.2-1 1.2.8 1c0 .4 0 4.5-2.4 6h1.9s.2 1 .7 2.2c.5-1.2.7-2.3.7-2.3 1 .2 1.9 0 1.9 0-2.4-1.4-2.4-5.5-2.4-6M83.6 50.8l.7-1-1-1.1-1 1.2.8.9c0 .5 0 4.5-2.3 6 0 0 .8.2 1.9 0 0 0 .1 1 .6 2.2.6-1.2.7-2.2.7-2.2 1.1.2 2 0 2 0-2.5-1.5-2.5-5.5-2.4-6M89.7 43.8l.8-.9-1-1.2-1 1.2.8 1c0 .4 0 4.5-2.4 6h2s.1 1 .6 2.2c.5-1.2.7-2.3.7-2.3 1 .2 1.9 0 1.9 0-2.4-1.4-2.4-5.5-2.4-6M65 43.8l.9-.9-1-1.2-1 1.2.8 1c0 .4 0 4.5-2.4 6h1.9s.2 1 .7 2.2c.5-1.2.7-2.3.7-2.3 1 .2 1.8 0 1.8 0-2.4-1.4-2.3-5.5-2.3-6M13 50.8l.7-1-1-1.1-1 1.2.8.9c0 .5 0 4.5-2.4 6 0 0 .8.2 2 0 0 0 .1 1 .6 2.2.5-1.2.7-2.2.7-2.2 1 .2 1.9 0 1.9 0-2.4-1.5-2.4-5.5-2.4-6M19 43.8l.9-.9-1-1.2-1 1.2.8 1c0 .4 0 4.5-2.4 6h1.9s.2 1 .7 2.2c.5-1.2.7-2.3.7-2.3 1 .2 1.8 0 1.8 0-2.4-1.4-2.3-5.5-2.3-6M25.2 50.8l.8-1-1-1.1-1 1.2.8.9c0 .5 0 4.5-2.3 6 0 0 .8.2 1.8 0 0 0 .2 1 .7 2.2.5-1.2.7-2.2.7-2.2 1.1.2 2 0 2 0-2.5-1.5-2.5-5.5-2.5-6M31.4 43.8l.8-.9-1-1.2-1 1.2.8 1c0 .4 0 4.5-2.4 6h1.9s.2 1 .7 2.2c.5-1.2.7-2.3.7-2.3 1 .2 1.9 0 1.9 0-2.4-1.4-2.4-5.5-2.4-6M6.8 43.8l.7-.9-1-1.2-1 1.2.9 1c0 .4 0 4.5-2.4 6h1.9s.2 1 .7 2.2c.5-1.2.7-2.3.7-2.3 1 .2 1.8 0 1.8 0-2.4-1.4-2.3-5.5-2.3-6M48.3 66.5l.8-1-1-1.1-1 1.1.8 1c0 .4 0 4.5-2.4 6h1.9s.2 1 .7 2.2c.5-1.2.7-2.3.7-2.3 1 .2 1.9 0 1.9 0-2.5-1.4-2.4-5.5-2.4-6M48.3 87.4l.8-1-1-1.1-1 1.1.8 1c0 .4 0 4.5-2.4 6 0 0 .8.2 1.9 0 0 0 .2 1 .7 2.2.5-1.2.7-2.3.7-2.3 1 .3 1.9 0 1.9 0-2.5-1.4-2.4-5.5-2.4-6M54 77l.8-1-1-1.2-1 1.2.8 1c0 .4 0 4.5-2.4 6l1.9-.1.7 2.3c.5-1.2.7-2.3.7-2.3 1 .2 1.9 0 1.9 0-2.4-1.4-2.4-5.5-2.4-6M42.5 77l.8-1-1-1.2-1 1.2.8 1c0 .4 0 4.5-2.4 6l2-.1s.1 1 .6 2.3c.5-1.2.7-2.3.7-2.3 1 .2 1.9 0 1.9 0-2.4-1.4-2.4-5.5-2.4-6M54 97.8l.8-.9-1-1.2-1 1.2.8 1c0 .4 0 4.5-2.4 6 0 0 .8.1 1.9-.1l.7 2.3c.5-1.2.7-2.3.7-2.3 1 .2 1.9 0 1.9 0-2.4-1.4-2.4-5.5-2.4-6M42.5 97.8l.8-.9-1-1.2-1 1.2.8 1c0 .4 0 4.5-2.4 6 0 0 .8.1 2-.1 0 0 .1 1 .6 2.3.5-1.2.7-2.3.7-2.3 1 .2 1.9 0 1.9 0-2.4-1.4-2.4-5.5-2.4-6M48.3 18.8l.8-.9-1-1.2-1 1.2.8 1c0 .4 0 4.5-2.4 6h1.9s.2 1 .7 2.2c.5-1.2.7-2.3.7-2.3 1 .2 1.9 0 1.9 0-2.5-1.4-2.4-5.5-2.4-6M54 8.4l.8-1-1-1.1-1 1.2.8.9c0 .5 0 4.5-2.4 6 0 0 .8.2 1.9 0 0 0 .2 1 .7 2.2.5-1.2.7-2.2.7-2.2 1 .2 1.9 0 1.9 0C54 13 54 9 54 8.4M42.5 8.4l.8-1-1-1.1-1 1.2.8.9c0 .5 0 4.5-2.4 6 0 0 .8.2 2 0 0 0 .1 1 .6 2.2.5-1.2.7-2.2.7-2.2 1 .2 1.9 0 1.9 0-2.4-1.5-2.4-5.5-2.4-6M54 29.3l.8-1-1-1.1-1 1.2.8.9c0 .5 0 4.6-2.4 6 0 0 .8.2 1.9 0l.7 2.3.7-2.3c1 .2 1.9 0 1.9 0-2.4-1.4-2.4-5.5-2.4-6M42.5 29.3l.8-1-1-1.1-1 1.2.8.9c0 .5 0 4.6-2.4 6 0 0 .8.2 2 0 0 0 .1 1 .6 2.3l.7-2.3c1 .2 1.9 0 1.9 0-2.4-1.4-2.4-5.5-2.4-6" fill="#241a04"/><path d="M29.6 20.7l.2.5.2 1c.4 1.9.8 2.4 1.7 2.4.5 0 .9-.3 1-.8l.2-.6.3-.2c.4 0 .5.3.5 1.1l.3 1.6.1 1.4c0 .4 0 .6-.2 1l.2 2a4 4 0 0 1-.4 1.9c.2.5.2.7.2 1.2l-.1 1-.2 1.2v.4l.2.4-.1.1-.7-.2-.7-.4-.7-.6c-.6.6-.8.7-2.4 1.1l-.7.3c-.2.2-.4.2-.5.2-.2 0-.4-.4-.4-1.3l.2-1.8-1.1-.3H26c-.1 0-.2 0-.2-.2s0-.5.2-.7l.3-.8c.1-.3.4-.6.8-1l.8-.4 1.2-.2c.7-.2 1-.5 1-1s-.2-.8-1-1l-1.3-.5-1.3-.6c-.7-.5-.9-.5-1-.5-.3 0-.5.2-.5.5 0 .6.4 1 1 1h.2l.4-.1c.1 0 .2 0 .2.2v.7c-.1.5-.4 1-1.1 2l-.3.3c-.2 1-.9 2-1.7 2.5l-.4.3-.2.4c0 .2-.3.4-.7.8l-.8.7a3 3 0 0 0-.6.6l-.3.6-.3.1c-.3 0-.5-.3-.7-.8-.1-.4-.2-.5-.5-.5l-.5.1-.5.1h-1.1c-.6 0-1.4.1-1.8.3a1 1 0 0 1-.3.1l-.2-.2-.1-.2a6 6 0 0 1 1.8-3.6c-.1-.6-.4-1-.9-1.1l-.5-.2-.1-.1c0-.2.2-.4.7-.7a4 4 0 0 1 1.8-.5c.5 0 1 .2 1.6.7.9.7 1.1.8 1.5.8.7 0 1.4-.6 1.4-1.3 0-.4-.3-.9-.9-1.7-.9-1.1-1.1-1.8-1.1-2.6 0-.5.1-1.2.3-1.5l.3-.5.1-.3c0-.2-.2-.4-.5-.4-.5 0-1.5.4-2.3.9-.4.2-.6.5-.6.7l.1.2.4.2v.2l-.1.2-.7.9a10.7 10.7 0 0 1-1.6 1.7l-.3.5a5 5 0 0 1-1.4 1.4l-.4.4-.3.4-.4.7-.8 1-.9.9c-.3.2-.5.8-.9 2-.2.7-.4 1-.5 1l-.3-.1c-.6-.7-1.2-1.2-1.4-1.2l-.4.2c-.2.1-.5.3-.9.3l-1.2.2c-.8.2-1.2.4-1.7 1l-.3.2s-.2-.1-.2-.3v-.3l.2-1a7 7 0 0 1 .7-2l.5-1 .2-.5c0-.7-.8-1.4-1.7-1.5-.3 0-.3 0-.3-.2s.2-.5.6-.8a4 4 0 0 1 2-.8c.3 0 .8.1 1.4.4l.7.3.7.1c.8 0 1.5-.6 2.4-2.2.4-.7.6-1.2.6-1.6 0-.8-.4-1.3-1-1.3a2 2 0 0 0-1.4.6c-.3.3-.5.6-.5 1v.4c0 .3 0 .5-.3.5s-.7-.5-2-2C5 23.5 5 23 4.8 22c-1-1.4-1.3-2-1.3-3v-.7c-.7-.9-1-1.4-1-2.2 0-.3.1-.5.3-.8-.4-.6-.5-.9-.6-1.3l-.2-.7c0-.4-.3-.8-.5-1.1l-.3-.7c0-.3.2-.5 1.4-.8l-.1-.7.1-.7.2-1.2.2-1c0-.3 0-.4-.3-1 0-.4-.2-.7-.3-.8l-.2-.4c0-.2.1-.2.3-.2.3 0 1.1.5 2 1.2 1.8 1.5 2.2 2.1 2.5 4v.6c1 .7 1.4 1.5 1.4 2.3a4 4 0 0 1-.6 2l-.7 1a2 2 0 0 0-.3 1.1c0 .6.2 1.2.6 2 .5.8 1 1.1 1.5 1.1.8 0 1.5-1.4 1.5-3.1V16l.1-1 .1-1v-1.3c0-.1 0-.3-.3-.6l-.7-.8c-1-1-1.6-2.1-1.6-2.9 0-1 .7-1.7 1.7-1.7l.7.1v-.2c0-1.4.2-2.4.6-2.4h.2l.6.5.7.5.2.2c0-.4 0-.5.4-1l.4-.6.3-.4.2-.3c0-.2.2-.3.3-.3l.3.5c0 .2 0 .3.6.8l.4.4.3.6v.3l.7-.6.5-.3.3-.1.2.2.3.4.4 1.2v.7c1 .3 1.4.9 1.4 2 0 .8-.4 1.8-1.2 2.7-.6.7-.6.8-.6 1.3 0 2.4 1.6 3.7 4.5 3.8h2.2c1.4 0 2.2.2 3.5.6 1.5.5 2 .6 2.4.6l.4-.1.2-.3c0-.5-.8-.8-3.4-1.6-5.3-1.5-7.5-3.6-7.5-7.1 0-2.7 2.2-4.8 5.2-4.8.9 0 2.3.3 3.2.6l1.3.4.7.2c.4 0 .6-.4.6-1.2 0-.4.2-.5.4-.5.4 0 1 .5 1.5 1.2s.8 1.5.8 2c0 .8-.3 1.3-1 1.8-.8 1-1.7 1.6-2.9 1.6-.9 0-2.2-.6-4.4-1.8-.7-.4-1.1-.6-1.5-.6-.6 0-1 .4-1 .9 0 .4.4.7 1.3 1 1.4.5 1.7.7 2.3 1.3 1.6.3 2.3.6 3.4 1.3 2.8 1 4.5 2.9 4.5 5 0 2.2-1.4 3.7-3.4 3.7l-1.6-.2" fill="#261b06"/><path d="M32.8 34.8l-.1-.8v-.2l.1-.6v-.4c0-.4 0-.7-.2-1l-.4-.5a2.4 2.4 0 0 1-.3-.8c0-.2 0-.3.2-.3l.4.2.3.1c.2 0 .3-.3.3-.8 0-.6 0-1-.2-1.1l-.5-.6-.4-.3-.1-.3c0-.2 0-.3.2-.3l.7.2h.2l.1-.2V26.3l-.2-.7c-.1-.3-.1-.3-.3-.3l-.9.2c-1.1 0-2.3-.9-2.6-2l-.6-2c-.2-.7-.7-1.3-1.6-2-.2-.3-.5-.4-.6-.4h-.6l-.2-.2.4-.2h1l1.8.5c1 .4 1.6.5 2.2.5 1.6 0 2.5-.9 2.5-2.3a4 4 0 0 0-1.3-2.8c-.4-.5-.9-.8-1-.8l-.2.2v.4c0 .2 0 .3-.2.3-.1 0-.3-.2-.5-.6-.6-1.3-1.6-2-2.6-2-.2 0-.3 0-.3.2l.2.4.2.6.1.3h-.1c-.2 0-.4 0-.6-.2l-.4-.5-.4-.7a3 3 0 0 0-1.4-1.1 26 26 0 0 1-1.1-.6l-.2.2.1.4.4.6-.2.2c-.3 0-.8-.5-1.2-1.2-.4-.6-.6-1.2-.6-1.8 0-1.4 1-2.4 2.3-2.4a5 5 0 0 1 2.5.8l1.5 1a4 4 0 0 0 1.7.5l1-.1.3-.2.2-.2v-.1h-.3l-.7-.2a16 16 0 0 1-3.5-1.7c-.3-.1-.4-.3-.4-.4h.4l1.2.5 1.4.5 2.1.4c.6 0 1.1-.5 1.1-1 0-.4-.2-1-.6-1.5l-.2-.1c-.1 0-.2 0-.2.2v.3l.1.4c0 .4-.3.7-.6.7h-.5l-2.1-.8c-1.8-.5-2.6-.7-3.4-.7-2.5 0-4.4 1.7-4.4 4 0 2.5 1.8 4.2 6.2 5.7 4.3 1.5 5 1.8 5 3 0 .6-.7 1.2-1.4 1.2H30l-2.2-.6c-1.3-.3-2.5-.4-4-.4-3.1 0-4.9.5-6.4 2-.3.4-.5.4-.9.4h-.7c-.4 0-.7.1-1 .5a48 48 0 0 1-.8 1.1c-.3 0-.5-.2-.8-1l-.7-1-.6-.5-.2-.3.1-.3.5-.8c0-.4 0-.5.3-.5.2 0 .2.2.2 1l.3.8.3.8.3.2c.4 0 .8-.8.9-1.6 0-.7.2-1 .3-1l.1.1.3.6.4.5.4.2c.3 0 .4-.2.5-.8v-.7l-.1-.3c0-.2 0-.4.2-.4l.2.2.3.3.7.3c.2 0 .4-.1.4-.3 0-.1 0-.3-.3-.7l-.2-.4c-.3-.5-.5-.7-.7-.7h-.3l-.4.2H16c0-.4.1-.8.5-1.4.2-.4.4-1.3.5-2.5.1-1.7.3-2.8.6-2.8.1 0 .2.2.2.5v1.3c.4 0 .7-.4 1-1L19 9v-.2l-.7-1.1-.6-.2-.2-.2V6.2l-.2-.4-.2-.3c-.7.4-1 .6-1.3 1-.2.3-.4.4-.5.4l-.1-.2V6c0-.7-.3-1.3-1-1.8l-.2.3-.3.3-.3.5c-.2.1-.3.3-.4.6v.5c0 .3 0 .4-.2.4l-.3-.4-.3-.4-.6-.3-.3-.2a11.6 11.6 0 0 0-.2.8v.5l-.1.5v.1c0 .3 0 .4-.2.4-.1 0-.3 0-.4-.2a1 1 0 0 0-.5-.1c-.5 0-.8.3-.8.9 0 .6.2 1.2.5 1.7l.4.5c.1.2.4.3.4.2V9.3l.1-.3c.2 0 .3.2.4.7l.3 1.2.2 1.5.4 1.3a7.1 7.1 0 0 0 1 1.8l-.2.1h-.3l-.3-.2h-.3c-.5 0-.6.4-.6 2.5 0 1.3.3 3.1.6 4l.7 1.7.1.8c0 2.3-3 6-6.5 7.7-1.2.6-1.6 1.2-1.7 2.6v.4l1-.5c1-.2 1.2-.3 1.3-.8l.1-.4c0-.2.2-.2.9-.6.3-.1.4-.3.5-.4l.4-.4h.1v.2l-.3.9v.2c0 .7.3 1.3 1 1.6.1-.7.2-1 .4-1.3l.6-1c.2-.3.3-.7.3-1.3v-1l-.1-.3c0-.1 0-.2.2-.2h.2l.2.7c0 .1.1.2.3.2.3 0 .7-.4 1.1-1.1.2-.3.2-.6.2-.9v-.4l-.1-.5c0-.3.1-.4.3-.4h.1l.2.8c0 .2.2.4.4.4s.6-.4.8-.8c.2-.4.3-.8.3-1.3 0-.7 0-.9.3-.9h.2l.1.5.3.2s.4-.3.7-.8v-.3l-.2-.4c-.3-.3-.4-.3-.4-.7 0-.4.1-.6.4-1.2l.4-.7c.4-.8.6-1 .7-1 .1 0 .2.1.2.3v.2l-.2.4c0 .1.1.2.3.2.1 0 .3 0 .5-.2l1-.3 1-.4h1.2l.8.1c.2 0 .5-.2.5-.5 0-.2-.2-.7-.5-1l-.2-.3v-.1l.2-.1c.2 0 .8.5 1.2 1.2 2.8 4.4 3.8 5.4 5.6 6 1.9.5 2.4 1 2.4 2.1 0 .6-.3 1.3-1 2.3-1.4 2-1.7 2.7-1.7 4v.3l.3-.2.5-.2.8-.2c.3 0 .5-.3.5-.6V34l-.1-.7v-.1c0-.3.1-.6.3-.7h.1l.3.1.5 1.1c.2.5.5.7 1.1 1M7 11.5c-.3 0-.4.2-.4.7v.6l-.1.8c0 .4.1.8.3.8.2 0 .5-.4.7-.9l.1-.7-.1-.7c-.1-.4-.3-.6-.5-.6" fill="#fd0"/><path d="M4.3 6.9l.5.4c.7.7 1 2 1 3.7v1.6L5.7 14c0 4 1.3 7 3 7 .5 0 .9-.2 1.4-1l.3-.2.1.2.1.7v.6l.1.7.1.6v.1c0 .2 0 .3-.2.3l-.6.1c-.3 0-.6.2-.9.4l-.8.6-.3.7-.3.2L7 24a3 3 0 0 1-.4-1c0-.1 0-.2.2-.2h1.1l.2-.2-.2-.2-1.4-.6c-.5-.2-.8-.6-1.1-1l-.6-1.5c0-.2.1-.4.3-.4l.2.1.4.1c.1 0 .2 0 .2-.2 0 0 0-.2-.2-.3-1.2-.9-2-1.9-2-2.8 0-.2.1-.3.3-.3H4.5c.2 0 .3 0 .3-.2 0 0 0-.2-.2-.3a91.5 91.5 0 0 1-1-.7l-.6-1-.4-.9a19.8 19.8 0 0 0-.5-.8 2 2 0 0 1 1-.3c.5 0 .7.3 1 1.1.2.5.4.8.6.8v-.4-1c-.2-.2-.2-.4-.2-.6v-.5l-.4-.2-.3-.3-.3-.7.1-.6.4-2v-.4l.3.4M8.2 30c-.5 0-.7-.1-1-.3l-.6-.2-1.2-.3a2 2 0 0 0-1.3.5l.3.2.6.5.6.5.5.2c.7 0 1.2-.3 2-1.1M20.5 35.8c.2-.4.3-.5.7-.8.9-.8 1.3-1.4 1.3-1.8v-.7c0-.4 0-.6.3-.6l.1.1.2.4.3.2.4-.4.4-.5.2-.6v-.4l-.3-.5-.1-.5c0-.2 0-.3.3-.3h.2l.2.4.3.1c.1 0 .2 0 .3-.2l.3-.6V29c0-.1 0-.3-.2-.3l-.4-.2c-.6-.3-1-1.2-1-2V26l.3-.6V25c0-.3 0-.7-.2-1l-.4-.7c-.2-.5-.3-.6-.5-.6H23l-.2.2-.3.2-.4.5-.5.2c-.3.1-.5.7-.5 1.2 0 .8 0 1 1.2 3 .4.7.6 1.3.6 1.8 0 1.3-1.1 2.2-3.5 2.8l-1.5.3c-1 .3-1.7 1-2 2.3.5-.2.7-.3 1.5-.3h.5c.5 0 .5 0 .8-.4.3-.4.6-.7 1-.9l.6-.2.4-.2H21l-.3.6c-.4.4-.5.8-.5 1.3 0 .3 0 .4.3.8" fill="#fd0"/><path d="M16.5 30.8l1 .9c.2.4.3.5.6.5l.5-.1h.2l.8-.4-.2-.3-.7-.6c-.2-.2-.7-.4-1-.4-.5 0-.7.1-1.2.4M26.9 32.6h.2l.2-.1h.5c.7 0 1.4-.6 1.4-1.2 0-.2-.2-.3-.6-.3-.9 0-1.4.5-1.7 1.6" fill="#fd0"/><path d="M15 10.4c0 .3.1.6.3.6l.6-1c.4-.7.9-1.5.9-1.9l-.2-.2-.4.3-1 .6c-.4.1-.6.3-.6.5v.3l.2.4.1.4M13 8.8l.5.2.2.4v.8c0 .6-.5.6-.7.6l-.3-.4-.7-.8a3 3 0 0 1-.5-1.4c0-.3 0-.3.2-.3.1 0 .3 0 .4.2l.8.7M14.2 12.1h-.5l-.4-.2a.9.9 0 0 0-.5-.2c-.3 0-.5.2-.5.4l.5 1.5.4 1c.3.9.7 1.3 1.2 1.3.4 0 .4-.4.7-1.2.7-1.6 1-1.8 1-2.4 0-.4 0-.5-.4-.5h-.3l-.5.3h-.7" fill="#261b06"/><path d="M14.2 13h-.4l-.2.1V14l.2.7c0 .4.2.5.5.5s.5-.2.5-.6l.1-.7v-.7-.2h-.7" fill="#fd0"/><path d="M89.5 20.7v.5l.3 1c.4 1.9.8 2.4 1.7 2.4.5 0 1-.3 1-.8l.2-.6.3-.2c.4 0 .6.4.6 1.1 0 .3 0 .9.2 1.6l.1 1.5-.2 1v.3l.2 1.2c0 1.3 0 1.8-.4 2.3.2.5.2.8.2 1.1l-.1 1.2-.1 1v.5l.1.4-.1.1-.6-.2-.8-.4-.7-.6c-.6.6-.7.6-1.4.8a6.3 6.3 0 0 0-2.1.8c-.3 0-.5-.5-.5-1.2 0-1 .1-1.5.3-2l-1.2-.2h-.6c-.1 0-.2 0-.2-.2 0-.3.3-1 .6-1.5.4-.7 1-1.3 1.5-1.4L89 30c.7-.2 1-.5 1-1s-.2-.8-1-1l-1.3-.5-1.3-.6-.7-.4-.3-.1c-.3 0-.5.2-.5.5 0 .6.5 1 1 1h.3l.3-.1c.1 0 .2.1.2.3a4 4 0 0 1-.7 2l-.4.5-.3.4c0 .8-.9 2-1.7 2.5a2 2 0 0 0-.4.3l-.2.4c0 .2-.3.4-.7.8l-.8.7-.6.6-.3.6-.3.1c-.3 0-.5-.3-.7-.8-.1-.4-.2-.5-.4-.5l-.6.1-.5.1h-1c-.7 0-1.5.1-1.9.3l-.3.1c-.2 0-.3-.1-.3-.5 0-1 .8-2.5 1.8-3.5-.1-.6-.4-1-.8-1.1L75 31l-.1-.1c0-.2.2-.4.7-.7 1-.4 1.2-.5 1.7-.5.6 0 1.1.2 1.7.7.9.7 1.1.8 1.5.8.7 0 1.4-.6 1.4-1.3 0-.4-.3-1-.9-1.7-.8-1-1.1-1.8-1.1-2.7 0-.6.1-1 .6-1.9l.2-.3c0-.2-.3-.4-.6-.4-.4 0-.8.2-1.4.4-1 .5-1.5.9-1.5 1.1l.1.3.4.2v.2l-.1.2-.6.9-1.4 1.4-.3.3-.3.5c-.2.4-.8 1-1.3 1.4l-.5.4-.3.4c-.3.6-.8 1.3-1.2 1.7l-.8.9c-.3.2-.6 1-1 2-.2.7-.4 1-.5 1l-.3-.1c-.6-.7-1.1-1.2-1.4-1.2l-.4.2c-.2.1-.5.3-.9.3l-1.1.2c-1 .2-1.4.4-1.8 1l-.3.2s-.2-.1-.2-.4v-.2l.2-1c.2-.8.4-1.6.7-2l.6-1 .1-.5c0-.7-.7-1.3-1.7-1.5-.2 0-.3-.1-.3-.2 0-.2.2-.5.6-.8.7-.5 1.4-.8 2-.8.3 0 .8.1 1.4.4l.7.3.8.1c.7 0 1.4-.6 2.3-2.2.4-.7.6-1.2.6-1.6 0-.8-.4-1.3-1-1.3-.5 0-1 .2-1.4.6-.3.3-.5.7-.5 1v.5c0 .3 0 .4-.3.4-.2 0-.5-.3-1-1l-1-1c-1-1.1-1.1-1.6-1.2-2.7-1-1.4-1.3-2.2-1.3-3v-.7c-.7-.9-.9-1.3-.9-2.2 0-.4 0-.5.2-.8-.4-.6-.5-.9-.6-1.3l-.2-.7c0-.4-.2-.8-.5-1.1l-.3-.6c0-.4.3-.6 1.1-.8h.3v-.8-.7l.2-1.2.2-1c0-.3 0-.6-.2-1l-.4-.8-.1-.4c0-.1 0-.2.2-.2h.3c1.1.7 2.3 1.6 3.1 2.5.8.9 1 1.5 1.2 3.3 1 .7 1.3 1.4 1.3 2.5 0 .6-.2 1.2-.6 1.8l-.7 1c-.2.4-.3.7-.3 1.1 0 .6.2 1.1.6 2 .5.8 1 1.1 1.5 1.1.8 0 1.6-1.4 1.6-3v-2l.1-.9v-.8l.1-.4c0-.3 0-.4-1-1.5-1.1-1.1-1.6-2.1-1.6-3 0-.9.7-1.6 1.6-1.6l.7.1v-1l.2-.9c.1-.6.2-.7.4-.7h.2l.6.5.7.5.2.2c0-.4 0-.5.4-1l.4-.6.4-.4.1-.3.3-.3c.1 0 .2.1.3.5l.2.4.5.4c.3.3.5.7.7 1.3l.6-.6.5-.3.4-.1.1.2.3.4c.4.7.4.8.4 1.2V7c1 .3 1.5.8 1.5 2 0 .9-.4 1.7-1.3 2.7-.5.7-.6.9-.6 1.4 0 2.3 1.7 3.6 4.6 3.7h2c1.5 0 2.3.2 3.6.6 1.5.5 2 .6 2.4.6.3 0 .6-.2.6-.4 0-.5-.8-.8-3.4-1.6-5.2-1.5-7.5-3.6-7.5-7.1C80 6.1 82.3 4 85.2 4c1 0 2.3.3 3.2.6l1.3.4.7.2c.4 0 .6-.3.7-1.2 0-.3.1-.5.3-.5.4 0 1 .5 1.5 1.2s.9 1.5.9 2.1c0 .7-.4 1.2-1.2 1.7-.7 1-1.6 1.6-2.8 1.6-.9 0-2.4-.7-4.4-1.8-.8-.4-1-.6-1.5-.6-.6 0-1 .4-1 .9 0 .4.4.7 1.3 1 1.5.6 1.9.8 2.3 1.3 1.6.3 2.4.6 3.4 1.3 2.9 1 4.5 2.8 4.5 5.1 0 2.1-1.4 3.6-3.4 3.6-.5 0-.8 0-1.5-.2" fill="#261b06"/><path d="M92.6 34.8v-1-1.3c0-.2 0-.4-.2-.6l-.3-.6c-.3-.3-.4-.5-.4-.8 0-.2 0-.3.2-.3h.1l.3.2.3.1c.2 0 .3-.3.3-.9 0-.8-.1-1.2-.6-1.6l-.5-.3-.1-.3c0-.2 0-.3.2-.3l.4.1.4.1h.1c.1 0 .2 0 .2-.2V27l-.1-.7c-.1-.7-.3-1-.5-1l-.9.2h-.1c-1 0-2.2-1-2.5-2l-.6-2c-.2-.7-.7-1.4-1.5-2-.3-.3-.5-.4-.7-.4h-.6l-.2-.2c0-.1.1-.2.4-.2a9 9 0 0 1 2.8.5 7 7 0 0 0 2.2.5c1.6 0 2.5-.8 2.5-2.2 0-.7-.2-1.6-.6-2.1-.3-.5-.8-1-1.5-1.5a.5.5 0 0 0-.2 0l-.2.1v.4c0 .2 0 .3-.2.3-.1 0-.3-.2-.5-.6-.6-1.2-1.6-2-2.6-2-.2 0-.3 0-.3.2 0 .1 0 .3.2.4a3.8 3.8 0 0 1 .3.9h-.1c-.1 0-.4 0-.5-.2l-.5-.5-.4-.7a3 3 0 0 0-1.3-1.1l-.8-.4a1 1 0 0 0-.4-.2c-.1 0-.2 0-.2.2l.2.4.3.6-.2.2c-.2 0-.6-.4-1.2-1.2a3 3 0 0 1-.6-1.8c0-1.3 1-2.4 2.4-2.4a5 5 0 0 1 2.4.8l1.5 1a4 4 0 0 0 1.8.5l.9-.1.4-.2.1-.2c0-.1 0-.2-.3-.2-.7 0-2.2-.6-3.2-1.2l-1-.6c-.3-.1-.4-.3-.4-.4h.3l1.4.5 1.3.5 2.2.4c.6 0 1-.4 1-1 0-.3 0-.7-.2-1-.2-.3-.4-.6-.6-.6 0 0-.2.1-.2.3v.2l.1.4c0 .4-.2.7-.6.7h-.5l-2.1-.8c-1.8-.5-2.5-.7-3.4-.7-2.5 0-4.4 1.7-4.4 4 0 2.5 1.7 4.1 6.2 5.7 4.4 1.5 5 1.8 5 3 0 .7-.7 1.2-1.4 1.2h-.8l-2.2-.6c-1.3-.3-2.4-.4-4-.4-3.1 0-4.7.4-6.3 2-.4.3-.6.4-1 .4h-.7c-.4 0-.7.1-1 .5l-.4 1-.4.1c-.3 0-.5-.2-.8-1l-.7-1-.6-.5-.2-.3.2-.3.3-.4.1-.4v-.3l.3-.2c.2 0 .2.2.2 1l.3.8.3.8.3.2c.4 0 .8-.8.9-1.6 0-.7.2-1 .3-1 .1 0 .2.1.5.7a1.5 1.5 0 0 0 .7.7c.3 0 .4-.1.5-.8v-.7l-.1-.3c0-.2 0-.4.2-.4l.2.2.4.3.6.3c.3 0 .4-.1.4-.3 0-.2 0-.3-.3-.7l-.2-.4c-.3-.6-.4-.7-.7-.7h-.3l-.4.2a1 1 0 0 1-.3 0c0-.4.1-.8.5-1.4.2-.3.4-1.2.5-2.5l.2-1.5c0-1 .2-1.3.4-1.3l.1.1.1.5v.4l.1.8c.1 0 .3-.1.5-.4l.4-.7.1-.8c0-.7-.3-1-1.3-1.3l-.2-.1V6.2l-.2-.4-.2-.3-.2.1-1 .8-.6.5-.1-.1.1-.6c0-.8-.4-1.5-1-2l-.3.3-.2.3-.4.5c-.3.2-.4.6-.4 1v.1l-.1.4h-.1l-.3-.4L72 6l-.6-.3-.2-.2c-.4.6-.4.7-.4 1.6v.2c0 .3 0 .5-.2.5l-.4-.2a1 1 0 0 0-.5-.1c-.4 0-.8.4-.8 1 0 .5.1 1 .5 1.6.3.4.6.7.8.7V9.3l.1-.3c.2 0 .3.2.4.7L71 11l.3 1.5c0 .4.1.9.3 1.3a6.5 6.5 0 0 0 1 1.8l-.2.1h-.3l-.3-.2h-.3c-.5 0-.6.4-.6 2.5 0 1.3.3 3.1.6 4l.7 1.7.1.8c0 2.3-3.1 6-6.5 7.7-1.3.6-1.6 1.2-1.8 3l1.2-.5c1-.2 1.1-.4 1.2-.8l.2-.4c0-.2.1-.3.8-.6.3-.1.4-.3.5-.4l.4-.4.1.1-.3 1v.2c0 .7.3 1.3 1 1.6l.1-.4.3-1 .6-.8c.3-.4.3-.6.3-1.4V30c0-.1 0-.2.2-.2h.2v.7l.4.2c.3 0 .7-.4 1.1-1.1.2-.3.2-.5.2-.8v-1.2c0-.1 0-.2.2-.2h.1l.2.8c.1.2.3.4.5.4.5 0 1-1 1-2 0-.8.1-1 .3-1h.2l.1.5.3.2.4-.3.3-.5v-.3l-.2-.4a.8.8 0 0 1-.4-.7c0-.4.2-1 .8-2l.7-1c.2 0 .2.2.2.3v.3l-.1.4c0 .1 0 .2.2.2s.4 0 .6-.2l.9-.3a35.2 35.2 0 0 1 1.7-.5h.6c.3.2.6.2.7.2.3 0 .5-.2.5-.5 0-.1 0-.4-.2-.6l-.3-.4-.2-.3v-.1l.2-.1c.3 0 .8.5 1.2 1.2 2.6 4.1 3.8 5.4 5.6 6 2 .6 2.4 1 2.4 2.1 0 .6-.3 1.4-1 2.3-1.3 1.8-1.7 2.8-1.7 4v.3l.3-.2.5-.2.8-.2c.3 0 .5-.3.5-.7V33.3c0-.4.1-.8.3-.8l.3.2.5 1.1c.2.5.5.7 1.1 1M66.3 12.8v.8c0 .5 0 .8.3.8.2 0 .5-.4.7-.9l.1-.8-.1-.6c-.2-.4-.3-.6-.5-.6-.3 0-.4.4-.5 1.3" fill="#fd0"/><path d="M64.1 6.9l.5.4a5 5 0 0 1 1 3.3v3.3c0 4.2 1.2 7 3 7 .4 0 1-.4 1.3-1l.3-.2.2.2V21.2l.2.7v.7c0 .3 0 .3-.8.4l-.9.4-.8.6-.3.7-.2.2c-.2 0-.5-.3-.8-.9l-.5-1c0-.1 0-.2.3-.2h1l.2-.2c0-.1 0-.2-.2-.2l-1.4-.6c-.4-.2-.7-.6-1-1-.4-.7-.7-1.2-.7-1.5 0-.2.1-.4.3-.4l.2.1.4.1h.2v-.2s0-.2-.2-.3c-1.2-.9-2-1.9-2-2.7 0-.3.2-.4.3-.4h.7c.1 0 .3 0 .3-.2l-.3-.3c-.8-.4-1-.6-1.5-1.7a7 7 0 0 0-1-1.7 2 2 0 0 1 1-.3c.5 0 .7.3 1 1.1.2.5.5.8.6.8V13v-1a2 2 0 0 1-.2-.7v-.5l-.4-.2c-.3-.1-.5-.6-.5-1v-.6l.2-.7.3-1.4v-.3l.2.4M68 30c-.7-.1-.8-.2-1.6-.5a3 3 0 0 0-1.2-.3 2 2 0 0 0-1.3.5l.3.2.6.5.6.5.6.2c.6 0 1.1-.3 2-1.1M80.3 35.8c.2-.4.3-.5.7-.8.9-.8 1.3-1.4 1.3-1.8v-.7c0-.4 0-.6.3-.6l.2.1.1.4.3.1c.2 0 .4-.1.8-.8l.2-.6v-.4l-.3-.5-.1-.5c0-.2 0-.3.3-.3h.2l.3.4.1.1c.1 0 .4 0 .4-.2l.3-.6v-.3s0-.2-.2-.2l-.4-.2c-.5-.3-1-1.2-1-2l.1-.4.2-.6.1-.5-.3-1-.4-.7c-.2-.4-.3-.6-.5-.6l-.4.2-.3.2-.4.5-.5.2c-.3.1-.5.7-.5 1.2 0 .7.1 1 1.2 3 .4.7.6 1.3.6 1.7 0 1.4-1.3 2.4-3.5 2.9-2.6.5-3.1 1-3.4 2.6.4-.2.6-.3 1.4-.3h.5c.5 0 .5 0 .8-.4.3-.4.6-.7 1-.9l.6-.2.4-.2H80.8l-.3.6-.5 1c0 .5 0 .7.3 1.1" fill="#fd0"/><path d="M76.3 30.8l1 .9c.3.4.3.5.6.5l.5-.1h.3l.7-.4s0-.2-.2-.3l-.4-.3-.3-.3c-.2-.2-.7-.4-1-.4-.4 0-.7.2-1.2.4M86.7 32.6h.2l.3-.1h.4l.6-.1.6-.7.2-.4c0-.2-.2-.3-.6-.3-.9 0-1.4.5-1.7 1.6" fill="#fd0"/><path d="M74.7 10.4c0 .3.2.6.4.6l.6-1c.5-.8.9-1.5.9-1.9l-.2-.2-.4.3-1 .6c-.4.1-.6.3-.6.5v.3l.4.5v.3M71.9 8a.7.7 0 0 0-.4-.1c-.1 0-.2 0-.2.2v.1l.2.6c.1.5.3.8.4.8l.5.9.7.4.2-.1V10l.2-.5v-.2c0-.1 0-.3-.2-.4l-.5-.2-1-.7M74 12.1h-.5l-.4-.2a.9.9 0 0 0-.5-.2c-.3 0-.4.2-.4.5l.4 1.4.4 1c.3.9.7 1.3 1.2 1.3.4 0 .7-.4 1-1l.3-1.5c.2-.5.6-.6.6-1 0-.3-.4-.7-.7-.7h-.2l-.5.4H74" fill="#261b06"/><path d="M74 13h-.4l-.2.1V14l.2.7c.1.4.2.5.4.5.3 0 .6-.2.6-.6l.1-.7a22.3 22.3 0 0 0 0-1h-.2l-.5.1" fill="#fd0"/><path d="M30.3 81.3l.4 1.5V84c0 1.4.5 2 1.4 2 .3 0 .5 0 .7-.2l.3-.4h.2c.2 0 .3.2.3.4v.5l.1 1.5.1 1.3c0 .7 0 1-.3 1.6.3.6.4 1.3.4 2 0 .6-.1 1-.4 1.5a4.4 4.4 0 0 1 0 2.3l-.1 1.5c0 .3 0 .4-.2.4l-.4-.3-.4-.3c-.3 0-.3.1-.7 1 0 .4-.3.8-.7 1.3-.4.3-.6.7-.6.9l-.2.7-.2.1c-.6 0-1.2-1.1-1.8-3.2-.2-.6-.4-1-.7-1-.3 0-.5.2-.6.4l-.2.5-.1.1c-.3 0-.7-.4-1-1a4 4 0 0 1-.2-1.5c0-1 .7-1.8 3-3 .9-.6 1.3-1.3 1.3-2.5 0-1-.3-1.6-1.2-2.2-.6-.5-1-.7-1.4-.7-.3 0-.5.2-.5.4 0 .3.1.5.5.6.5.2.8.4.8.6l-.6 1.2a3 3 0 0 1-1 1c-.2 1-.6 1.5-1.6 2.1-.1.6-.3.8-.6 1.2l-.7.9-.5 1c0 .5 0 .5-.3.5-.2 0-.7-.4-1.3-1-.3-.5-.3-.7-.4-1.1-.3.2-.4.3-1 .3l-1 .3-.7.3-.2-.3v-.7a5 5 0 0 1 1-2.9c-.6-.4-1.1-.7-1.6-.8l-.2-.1c0-.1 0-.4.3-.6l.5-.6c.5-.4 1.3-.7 1.9-.7.4 0 1 .1 1.8.4l.8.2c.3 0 .5-.2.5-.6 0-.6-.2-1.5-.9-3-.4-1-.6-1.6-.6-2.1 0-1.1.5-2.3 1.2-2.6-.3-.2-.5-.2-.8-.2-.3 0-.5 0-1 .3l-.7.7.3.3c.2.2.3.2.3.5 0 .8-.7 1.8-1.6 2.5a2.8 2.8 0 0 1-1.7 2.3 3 3 0 0 1-.7 1.5c-.9 1.1-1 1.5-1.2 2.2l-.3.5-.7-.6a6 6 0 0 1-.5-.6 3 3 0 0 1-.4-1H12.5a4 4 0 0 0-2.1.5c-.2 0-.4-.4-.4-1 0-1 .3-2 1-3a6 6 0 0 1-.6-.7 1 1 0 0 0-.2-.2l-.4-.2-.2-.2c0-.2.5-.6 1-1a3 3 0 0 1 1.6-.5c.6 0 .8 0 1.5.7.4.4.7.5 1 .5.1 0 .3 0 .4-.3l.2-.4c0-.6-.7-1.7-1.6-2.2-.6-.4-1.2-.6-1.9-.6-.9 0-1.6.4-2 1.1l-.3.8-.3.2c-.2 0-.3 0-1-.9l-.9-1-.5-.8-.2-.4-.3-.3c-.6-.4-1.1-1.3-1.4-2.6v-.4C4 76.2 3.5 75 3.5 74v-.5c-.4-.4-.5-.5-.8-1.8-.3-.8-.4-1.2-.7-1.6l-.2-.3c0-.2.3-.3.8-.4h1.2v-.9c0-.5 0-.8.2-1.4v-.7A5.5 5.5 0 0 0 4 65l.2-.2c.1 0 .3 0 .5.2l1.3.8c1.1.9 2 2.2 2 3v.7l.1.6.4.4c.3.5.5 1 .5 1.3 0 .3 0 .4-.6 1.2-.4.5-.5 1-.5 1.4 0 .6.2 1.3.6 2 .4.7.8 1 1.3 1 .7 0 1-.6 1.1-2.3 0-.9.1-1.7.3-2.4v-.4c0-.2 0-.4-.3-.7l-1-1c-1-1.2-1.2-1.7-1.2-2.5 0-.9.6-1.5 1.4-1.5h.4v-.2c0-.2 0-.5.2-.9.2-.6.4-1.2.6-1.2l.3.2.6.2.6.3c.1-.5.3-.8.5-1 .4-.6.9-1 1-1 .2 0 .3 0 .6.3l.6.7.3.6.2.3.3-.3a8.3 8.3 0 0 1 1.5-.7c.1 0 .2.2.4 1.3l.2 1.4c1 .1 1.5.7 1.5 1.8 0 1-.5 2-1.6 3.2-.3.4-.3.5-.3.8 0 2.8 1 3.7 4.5 4.1 2.2.2 2.8.4 5.5 1.2 1.3.4 2.1.5 2.6.5.6 0 1-.2 1-.6 0-.6-.5-.7-3-1.3-6-1.2-8.3-3.3-8.3-7.2 0-2.8 2.1-4.9 4.9-4.9 1.2 0 2.3.4 4 1.4 1.7 1 2 1.1 2.4 1.1.4 0 .6-.3.6-1 0-.4.1-.6.4-.6.3 0 .6.2 1 .6.5.7.7 1 .7 1.9 0 1.1-.6 1.9-1.8 2.2l-.3.3c-.6.8-1.2 1-2.3 1-.9 0-2-.4-2.8-1l-1.6-1c-.6-.5-1.1-.7-1.6-.7-.6 0-1 .4-1 1 0 .7.4 1.2 1.1 1.5l1.5.4 1.3.6h.7a6 6 0 0 1 2.8.6l.5.3.8.2a5 5 0 0 1 3.3 4.5c0 2.3-1.4 3.7-3.8 3.7h-.7" fill="#261b06"/><path d="M29.7 100.3l.2-.4.5-.5c.3-.4.5-1 .5-1.6l-.1-1-.2-.6c0-.2.2-.4.3-.4l.3.1.5.6.7.5v-.5l.1-.5c0-.8-.3-1.6-.7-2.2l-.4-.6.2-.3.1.1.6.3c.1 0 .3-.3.3-.8a3 3 0 0 0-.7-1.8 11 11 0 0 1-.4-.4V90c0-.2 0-.3.3-.3l.3.2.3.1c.2 0 .3-.4.3-1.3v-1c0-.7-.1-.8-.4-.8h-.2c-1.6 0-2.3-1-2.7-3.6-.3-2-1-3.3-2-3.6-.5-.2-.6-.3-.6-.5l.3-.1.6.1c1.2.5 2.3.8 3.3.8 1.5 0 2.7-1.1 2.7-2.6 0-1-.5-2.2-1.5-3-.2-.3-.5-.5-.8-.6h-.2v.6l.2.3v.1l-.1.1H31l-.6-1a3 3 0 0 0-2.2-1.2c-.3 0-.4.1-.4.3l.1.4c.2.1.3.4.3.5v.1l-.1.1c-.2 0-.3 0-1-.8-.6-.7-1.7-1.3-2.3-1.3h-.3v.2l.2.4c.2.1.3.4.3.5H25c-.2 0-.6-.2-1.4-.8-1.2-1-1.7-1.8-1.7-2.8 0-1.3.8-2.3 2-2.3a4 4 0 0 1 2.1.8l1.6 1.2c.7.5 1.6.8 2.5.8l.6-.1.2-.2-.3-.2c-.6 0-1-.3-1.3-.5l-1.6-1.2-1.3-1-1-.6h.5l.8.4c.3 0 .7.4 1.3.8 1.8 1.1 2.6 1.5 3.6 1.5s1.7-.7 1.7-1.6l-.1-.6-.2-.3-.2-.2v.2l-.2.6v.3l-.3.3c-.2.2-.3.2-.6.2-.5 0-1-.2-2.5-1.2a8 8 0 0 0-4-1.5 4.2 4.2 0 0 0-4.2 4.2c0 3.2 2 4.6 8.1 6 2.4.5 3.4 1.2 3.4 2.2 0 1-.8 1.6-2 1.6h-.9l-3.3-1c-1.3-.4-2.9-.6-4.2-.6-2.4 0-4 .7-5.2 2.3l-.3.3s-.2 0-.3-.2l-.4-.3c-.3-.3-.8-.5-1.2-.5a1 1 0 0 0-.7.3c-.1.2-.2.2-.3.2-.2 0-.5-.4-.8-.9-.3-.7-.5-1.5-.5-2.2 0-.3.1-.5.2-.5.2 0 .2 0 .3.2l.2 1c.2.5.5 1 .7 1l.5-.5.2-.4c.2-.6.3-.7.4-.7.2 0 .3.1.4.7l.2.6.4.5.4.2c.2 0 .5-.5.5-1V77l.1-.3.2.1.6.5.4.1.4-.1.1-.3-.5-.6-.6-1.2c0-.3-.2-.5-.3-.5l-.2.1-.4.2-.3.1h-.1c-.2 0-.3 0-.3-.2 0-.1.3-.5.7-.8.2-.2.4-.5.4-.8 0-.6.1-1 .2-1l.1-1.1c0-.6.3-1.6.5-2.2l.1-.2c.1 0 .2.2.2.5v.5l.1.6c.2 0 .3-.2.5-.6l.3-.7.1-.6c0-.6-.4-1-.9-1H18a1 1 0 0 1-.2 0c-.2 0-.4-.1-.4-.4V65.4l-.1-.4-.3.2-.4.3-.5.4-.4.3-.2.2c-.3 0-.3-.1-.3-.6v-.1c0-.4-.2-.8-.8-1.5l-.2-.2-.1.2-.4.6-.3.9-.1.5-.1.3c-.1 0-.2 0-.3-.2-.5-.5-.7-.6-1.4-1v.3l-.3.7v1.1c0 .1 0 .2-.2.2l-.2-.1-.4-.1c-.6 0-1 .3-1 .8 0 .4.2.7.8 1.6.2.4.5.7.6.7.1 0 .2-.2.2-.5v-.4l-.2-.4c0-.2 0-.3.2-.3.3 0 .6.8.7 2l.1 1.2c0 .4.2.8.4 1.2l.8 1.2c.4.2.5.4.5.6l-.1.2-.7-.3h-.2c-.7 0-.9.4-.9 1.5 0 1.3.9 3.2 1.9 4l1.5 1.2c.7.6 1.3 1.6 1.3 2.3 0 1-1 1.9-2.8 2.5l-1 .4c-.9.3-1.2.8-1.5 2.4l.8-.2h.7c.4 0 .7-.2.7-.6v-.3l.3-.3.4-.2.4-.3h.2l.2.1-.1.3-.2 1.1c0 .8.1 1.2.5 1.8l.1-.4.6-.9c.5-.7.8-1.5.8-2v-.8-.3l.3-.1c.1 0 .2 0 .3.3l.3.3s.3-.3.4-.7l.2-.7-.1-.4-.1-.3.1-.2.2-.1h.2l.3.2.2.1.5-.3.4-1-.2-.2c-.6-.4-1-1.1-1-1.7V81l.4-.8.2-.7h.1c.1 0 .2 0 .2.2l-.1.4-.1.6c0 .2 0 .3.3.3l.5-.1c1-.4 1.8-.6 2.2-.6.5 0 .7 0 1.2.4l.3.1.2-.1v-.2l-.1-.4c-.2-.2-.3-.3-.3-.5l.2-.1c.5 0 1.3 1.6 2 4 .6 2 .8 2.3 2.7 3.4 1.6.9 2.2 1.8 2.2 3.2 0 1.5-.4 3.3-1.2 5.7-.3.8-.4 1.3-.4 1.7 0 .4 0 .7.3 1.6l.3.7c0 .1 0 .3.2.5" fill="#fd0"/><path d="M22.3 95.8l.6-1c.5-.9.7-1.3.7-1.7v-.5c0-.5 0-.7.3-.7l.1.1.2.3.2.1.4-.3c.2-.3.4-.8.4-1.1v-.4l-.1-.3c0-.2 0-.3.3-.3l.2.3.3.3.3-.2.2-.4.2-.3v-.2l-.2-.3c-.6-.4-.8-1-.9-2.2l-.1-1.8a48.3 48.3 0 0 0-1.4-3c-.9 0-1.5.8-1.5 1.8 0 .6.2 1.5.6 2.6.7 1.6.8 2.1.8 2.7 0 1.1-.4 1.7-2 2.2-2 .7-2.8 1.6-3 3.3h.2c.2-.2.4-.2.5-.2l.5-.2c.4 0 .8-.3.9-.6v-.4l.3-.3h.3l.3-.2v.1l-.1.4v.8c0 .7 0 1.1.5 1.6M5 66.2l.1.3-.1.8v.7c0 .6 0 1.2.2 1.7l.2.7v.1l-.1.3s-.2 0-.3-.2a1.8 1.8 0 0 0-1.8-.4l.2.3.5 1.2.7 1 .7.5.1.2.1.2v.1h-.7l-.2.2c0 .1 0 .4.3 1l.3.9.5.5.6.4c.2.1.3.3.3.4l-.1.1h-.3l-.2.3c0 .3.2.7.6 1.3.5.7.9.9 1.4.9h.5c.3 0 .4 0 .4.3l-.3.3c-.5 0-.6.1-.6.3 0 .1 0 .3.2.4l.2.3c.2.3.5.5.6.5.1 0 .3 0 .5-.3a2 2 0 0 1 1-.7c1.2-.2 1.4-.4 1.4-.6l-.1-.4a3 3 0 0 1-.5-1.6c0-.4-.1-.6-.3-.6l-.2.2c-.3.4-.7.7-1.2.7-1 0-2.4-1.7-3-4l-.3-1.8c0-.6 0-1.3.2-2l.4-1.5v-.4c0-.8-.7-1.9-1.8-2.6" fill="#fd0"/><path d="M7.4 70.6c-.3.5-.5 1.5-.5 2.1 0 .4.1.7.3.7l.2-.2.3-.6.3-.4.2-.5c0-.4-.4-.9-.8-1M10.9 85l.2.2.2.3c.6.6.7.7 1 .7l1.2-.3.3-.3-.4-.3-.3-.3c-.3-.3-.7-.5-.9-.5-.3 0-.7.2-1.3.6M18.3 90.9l.7.3.5.3h.9l.7-.2.6-.3c.2 0 .3-.1.3-.2l-.4-.2-.4-.1c-.8-.4-1-.4-1.2-.4-.7 0-1.3.3-1.7.8M26.4 97.3c.3-.5.4-.6 1.1-.6.9 0 1.6-1.6 1.6-2.5V94h-.3l-.4.4-1 .4c-.6.3-1.1 1-1.1 1.7l.1.8" fill="#fd0"/><path d="M12.6 69.5l.3.4.7.5c.1 0 .2 0 .2-.3l.1-.5v-.5c0-.4-.1-.6-1-.8-.2 0-.3 0-.4-.2a.9.9 0 0 0-.4-.2l-.1.1v.2l.1.5.5.8M16 69.5l-.4.7-.2.2c-.2 0-.3-.4-.3-.8l-.1-.7c0-.2.2-.3.6-.4l.7-.2.5-.4.2.2-.3.6-.7.8M15.2 71.6l.5-.2h.2c.3 0 .5.1.5.4 0 .4-.3.9-.7 1.6-.4.8-.7 1.3-1 1.3-.5 0-1.2-.8-1.8-2a2 2 0 0 1-.3-.9c0-.4.2-.6.6-.6l.3.1.3.2.8.3c.2 0 .4 0 .6-.2" fill="#261b06"/><path d="M14.5 72.4H14c-.3 0-.4 0-.4.3s.3 1 .6 1.4l.3.1c.2 0 .3-.4.4-1l.1-.5v-.1c0-.2 0-.3-.2-.3" fill="#fd0"/><path d="M86 80.8c.6.7 1.4 1.2 2 1.2l.9-.1.4-.1c.2 0 .2 0 .2.2l-.1.6-.2.6-.2.6-.3.6-.4.4-.2.2v.4c0 .8-.2 1.2-.8 1.7l-.2.1-.1.3a8 8 0 0 1-.3 1l-.6 1-.8 1.3c-.2.3-.3.4-.5.4-.3 0-.6-.4-.7-.8l-.1.1-.4.3-.6.4a5 5 0 0 0-.5.4l-.4.4H82c-.1 0-.3-.2-.5-.8l-.3-1-.1-1c0-.6 0-.8.2-1.2a4 4 0 0 0-1.1.2 1 1 0 0 1-.3.1c-.1 0-.2 0-.2-.2l.1-.5.5-1c.3-.9 1.3-1.7 2.2-1.7l.8.2.5.1c.3 0 .6-.3.6-.6 0-.2 0-.4-.2-.4l-1.2-.4c-.5-.1-.8-.3-1.4-1-.4-.5-.6-.7-.8-.7 0 0-.2 0-.2.2v.7a6 6 0 0 1-.8 2.9l-1 1.6a4 4 0 0 0-.5 2c0 .6.3 1.2.6 1.3l.5.1.2.1v.2l-.1.3-.6.7c-.5.7-.9 1-1.6 1.2-.3 1-1 1.5-2.1 1.9l-.1.2c-.4.7-1.3 1.3-1.8 1.3h-.1c-.1.6-.5 1.2-1.1 1.6l-.8.5-.1.3c-.2.4-.3.5-.5.5-.3 0-.6-.3-.8-1a11.4 11.4 0 0 0-1 .7l-1 .3c-.8.2-1.5.5-1.7.8l-.3.5h-.1c-.2 0-.3-.2-.4-.5l-.3-1.8c0-1.1.4-1.9 1.5-3v-.3c0-1.8 1.4-3 3.4-3h.3l1 .1h.2c.6 0 1.1-.2 1.7-.7.8-.6 1-1 1-1.8l-.3-1.2-.2-1.6c0-1.3 1-3 2.3-3.8.3-.3.6-.6.6-.8h-.1c-.1 0-.3 0-.4.2l-.8.4-.5.3-.6.2c-.2 0-.3.2-.3.3l.1.3V84.9l-.5.7c-.5.8-.8 1-1.3 1.3-.4 1-1 1.6-1.7 1.7-.6 1.2-1.1 1.7-2.2 1.8a4 4 0 0 1-1 1.5l-.4.5c-.2.4-.2.5-.4.5l-.7-.5-.3-.4-.3-.5c0-.2-.2-.3-.3-.3h-.2l-.7.1c-.4.1-1 .5-1.3.8l-.4.6h-.1c-.3 0-.5-.6-.5-1.6s.2-1.6.5-2L63 88l.2-.5c0-.2 0-.3-.2-.4-.2-.3-.4-.4-.5-.4l-.7-.1-.1-.1v-.2l.9-.8c.8-.4 1.3-.6 1.8-.6.6 0 1.2.2 1.7.5l1 .6.4.2c.4 0 .7-.3 1-.9.3-.5.4-1 .4-1.5a2 2 0 0 0-2-2c-.6 0-1.1.2-1.7.6a1 1 0 0 0-.3.4l-.3.5c0 .2-.1.3-.2.3l-.8-1a6.8 6.8 0 0 1-.7-2.8v-1c-.4-.6-.6-1-.6-1.9 0-.3 0-.5.3-1.1-.3-.5-.4-.8-.4-1.5v-.4l.1-.4.1-.4c-.3-.4-.4-.7-.7-2a4.2 4.2 0 0 0-.5-1.6c0-.2.4-.4 1-.4h.4l-.1-.6c0-.4 0-.8.2-1.3l.2-.7-.1-1-.3-.7v-.3c.7 0 2 .6 2.9 1.5.9.9 1.2 1.6 1.2 3v.6c.8.8 1.2 1.4 1.2 2.1 0 .5-.2.8-.7 1.3-.8.9-1 1.3-1 2.4 0 1.7.5 2.7 1.4 2.7.9 0 1.5-1 1.6-2.3l.1-1.2c0-.3 0-.7.2-1.1v-.9c0-.4-.2-1-1-2-1-1-1.3-1.5-1.3-2.4 0-1 .7-1.7 1.6-1.7.3 0 .4 0 .7.2 0-.6 0-.7.3-1.4s.5-1 .7-1h.1l.5.4.3.2.3.3c.2-.7.4-1 1-1.6.4-.5.6-.6.7-.6l.2.1.4.6.5.6c.2.2.3.4.4 1l.3-.2.5-.3.4-.3h.2l.2.2.2.7.4.8.1.8v.2h.3c.6 0 1.1.8 1.1 1.7 0 1-.9 2.6-2 3.3-.2.4-.2.6-.2.9 0 2.6.7 3 4.6 3.7a22 22 0 0 1 5.2 1.3c.8.3 1.4.5 1.9.5.4 0 .7-.2.7-.4 0-.5-.6-.9-2.6-1.6l-2.8-1.1c-2.8-1.1-4.2-2.9-4.2-5.4a5 5 0 0 1 5.2-5.2c1.1 0 2.2.2 3.8.8l2.4.8c.3 0 .6-.3.6-.9 0-.4.2-.6.5-.6.4 0 .8.3 1.1 1 .3.5.4 1 .4 1.6 0 1-.5 1.8-1.6 2-.6.8-1.5 1.3-2.5 1.3-1.3 0-2-.3-4.1-1.6-.8-.5-1.1-.6-1.7-.6-.8 0-1.3.4-1.3 1 0 .7.4 1 1.5 1.3.6.2.7.2 1 .6l.6-.1c1 0 2.3.6 3.4 1.5 2 .6 3.7 2.7 3.7 4.5 0 2-1.7 3.8-3.6 3.8l-2.5-.4" fill="#261b06"/><path d="M84.9 89.6l.1-.3.1-.5.4-.5c.3-.4.5-1 .5-1.6 0-.2 0-.4-.2-.6l-.1-.3v-.2h.2c.1 0 .2 0 .3.2l.4.2c.1 0 .3-.2.4-.6v-.3a3 3 0 0 0-.3-.9v-.3l.1-.2c.1 0 .3 0 .4.2l.3.2c.2 0 .3-.2.5-.7l.1-.5-.1-.2h-.5c-.6 0-1.4-.3-1.8-.8l-.9-1.1-.8-1-.7-.5c-.2-.1-.2-.2-.2-.3 0-.1.1-.2.3-.2l1.6.6c1 .4 2.4.7 3.3.7 1.5 0 2.8-1.2 2.8-2.7 0-.9-.4-1.6-1.3-2.7-.2-.2-.4-.4-.6-.4l-.2.2.1.4.1.3c0 .1 0 .2-.2.2s-.4-.3-.5-1c-.3-.6-.7-1-1.6-1.5l-1-.4-.2.1c0 .2 0 .3.2.4l.2.6c0 .2 0 .2-.2.2s-.2 0-.7-.7c-.2-.4-.9-.9-1.4-1.1l-.6-.1H83l.2.4v.2l-.1.1c-.2 0-.8-.5-1.3-1-.5-.6-.8-1.3-.8-2 0-1.1 1.1-2.2 2.4-2.2l.9.1 1 .6 1.4.9c.8.5 1.8.8 2.4.8l1-.2c.3 0 .5-.2.5-.3l-.8-.1c-.4 0-1.3-.5-2-1l-1.5-.9-1.3-.5-.1-.2.1-.1h.4l1.2.4c.3 0 .8.3 1.5.7 1.3.7 2.2 1 2.8 1 .8 0 1.3-.5 1.3-1.2l-.1-1-.2-.3-.2-.2-.1.3v.4c0 .6-.2.8-.9.8a9 9 0 0 1-2.8-.9 9.2 9.2 0 0 0-3.5-.8c-2.4 0-4.5 2-4.5 4.2 0 2 1.3 3.4 4 4.5l2.6 1.1c2.3 1 3.1 1.6 3.1 2.5 0 .7-.7 1.2-1.7 1.2l-2.1-.4c-2.5-.9-4.2-1.2-5.7-1.2-2.3 0-4 .7-5.4 2-.2.3-.3.3-.4.3l-.5-.2-.7-.2-.8.4-.3.5-.3.2c-.2 0-.6-.4-.9-1a3 3 0 0 1-.4-1.6v-.6l.2-.7v-.5l.2-.1c.2 0 .3.1.3.5V76.9c0 1 .3 1.8.7 1.8.3 0 .6-.6.8-1.7 0-.2.2-.4.3-.4.1 0 .2.2.3.7 0 .3.2.7.5 1 0 .2.2.3.3.3.3 0 .5-.4.6-1.4 0-.3.1-.5.3-.5h.1l.2.4.4.3.3.1h.3l.3-.4-.2-.2-.6-1.1-.3-.7-.1-.3H75l-.7.2h-.4c0-.2.2-.3.3-.4.8-.7 1.3-1.8 1.5-3.3 0-1 .2-1.4.6-2l.2-.1c.1 0 .2 0 .2.3l-.1.4v.7l.4-.1.3-.5c.3-.2.5-.8.5-1.3 0-.3-.1-.5-.3-.7-.2-.3-.3-.4-.5-.4h-.4l-.3-.1v-.6l-.1-.8-.2-.4-.1-.3-.2.1-.5.3-.4.4c-.4.5-.5.6-.7.6l-.1-.2v-.8a3 3 0 0 0-.8-1.8c-.7.6-1 1.3-1 2v.4l-.2.2s-.2 0-.2-.2l-.4-.5-.5-.4-.3-.2-.1.2-.5 1.6-.1.5h-.2c-.5-.3-.6-.3-.8-.3-.5 0-1 .4-1 1l.5 1c.3.6.7 1 .9 1v-1.2l.1-.2c.3 0 .5.8.8 2.5.2 1.5.6 2.6 1.2 3.2l.3.3-.2.1a1 1 0 0 1-.4-.2.7.7 0 0 0-.3 0c-.3 0-.7.3-.8.7l-.3 1.8-.2 2.6c0 .5 0 1.1.2 2 .2.6.2 1.1.2 1.4 0 2-1.2 3.5-3.1 4l-2 .7c-1.4.4-2 1.2-2.2 2.8.4-.3.5-.3 1-.4l.6-.1.5-.2.4-.3.5-.6c.2-.3.4-.4.5-.4 0 0 .2 0 .2.2l-.3.5-.2.8c0 .5.1.7.5 1.3l.1-.4.5-.7c.5-.5.8-1.1.8-1.4 0-.5 0-.7.2-.7l.1.3.1.2.2.2s.2 0 .3-.2l.5-.4.3-.6.2-.6V87v-.2c.2 0 .3.2.4.4l.2.1.3-.1c.4-.4.7-.9.7-1.2v-.6l-.2-.5c0-.1 0-.2.2-.2.1 0 .3.2.5.7l.3.3c.1 0 .3-.1.6-.6l.3-.4v-.3-.3l-.3-.4v-.3c0-.5 0-1 .4-1.5l.4-.8c0-.2.1-.2.2-.2l.1.1v.9c0 .1.1.2.3.2l.3-.1.8-.3.7-.3c1.3-.7 1.7-.9 2.3-.9.4 0 .8.2 1.5.5h.3l.3-.1.1-.2-.1-.4-.2-.5.1-.2.3.2.7 1.3c.6 1 1.4 1.8 2 2l1.5.3c.4 0 .5.2.5.8 0 1-.4 1.9-1.3 2.4l-1.1.7c-.4.3-.8 1-.8 1.6l.2 1.7.3-.2.5-.4.5-.4.3-.8.2-.6c.1-.3.3-.5.4-.5 0 0 .2.2.2.5v.2c0 .5 0 .7.4 1.3" fill="#fd0"/><path d="M65.9 98.8c0-1.5.5-2.2 2.8-3.3 4.3-2.2 6.7-4.3 6.7-5.8A7 7 0 0 0 75 88l-.3-1.4c0-.7.6-1.8 1.3-2.5l.6-.5c.4-.3.6-.7.6-1v-.4c0-.3.1-.4.5-.4h.2l.3-.1c.1 0 .2 0 .3.2l.1.2.2.3.3.1h.2c.1-.2.3-.2.4-.2.2 0 .2 0 .2.3 0 .6-.4 1.5-1.1 2.5-1.2 1.7-1.7 2.6-1.7 3.7 0 .8.3 1.5.8 2.1v.3l-.1.4-.2.2c-.3.4-.5.5-.6.5-.2 0-.3 0-.3-.2l-.2-.4-.1-.1-.2.1-.1.4v.5c0 .2 0 .4-.2.6l-.5.5-.2.2-.3-.3-.2-.6-.1-.2c-.1 0-.2.2-.2.5-.1.7-.2 1.1-.4 1.3l-.5.4c-.1.2-.3.3-.4.3l-.2-.1-.2-.5-.1-.1c-.2 0-.3.2-.3.7-.1 1.2-.4 1.7-1 2.1-.5.4-.6.5-.8 1A2 2 0 0 1 70 97l.1-.7c.2-.2.2-.4.2-.5v-.1l-.2.1-.5.3c-.5.4-.6.5-.8 1.1-.1.9-.6 1.3-1.4 1.5-1.1.2-1.2.2-1.6.6v-.6M63.8 65.7v1.4l-.2.7c0 .6.1.9.5 1.5l.3 1.1-.1.2H64l-.3-.4c-.2-.3-.4-.4-.9-.4h-.5l.4 1.2c.2 1 .3 1 .8 1.6.6.5.6.6.6.8 0 .1 0 .2-.2.2H63.7c-.2 0-.3.3-.3.7a2.4 2.4 0 0 0 .4 1.2l.3.3.1.3c0 .2 0 .3-.2.3l-.3-.1h-.2c-.1 0-.2 0-.2.2v.5l.3.8.3.6.5.4.6.3.1.2c0 .1 0 .3-.2.3l-.3-.1h-.3c-.4 0-.4 0-.4.2v.5l.2.5c.1.6.3.9.5.9l.2-.2a4 4 0 0 1 2-.6 6.5 6.5 0 0 1 1.9.2v-.4l.1-.5.2-1V77.9a6 6 0 0 0-.2.2c-.5.6-.9.7-1.4.7-1.5 0-2.4-1.6-2.4-4.5a30.5 30.5 0 0 1 .6-5.7c0-1-.6-2.1-1.8-2.9" fill="#fd0"/><path d="M66 73l.3-.4.3-.2c.2-.2.4-.7.4-1l-.1-.5c-.1-.2-.3-.4-.5-.4 0 0-.2.2-.2.7v.4l-.2.5v.8M63.2 86c.3.1.4.2.7.6.5.5.7.6 1.3.6h.4l.5-.1.3-.1.2-.2s-.2-.3-.6-.5l-.8-.5-.7-.2c-.5 0-.9.1-1.3.4M67.5 95c0-1 1-1.8 2.3-1.8.6 0 1 0 1 .3 0 .2-.3.4-1 .7l-.9.5-1.4.7v-.3M80.5 87.3l.9-.2h.6l.3-.3.5-.3.7-.6c0-.2-.3-.3-.8-.3-1 0-1.7.5-2.2 1.7" fill="#fd0"/><path d="M70.9 67.8l.4.3.7.3c.4.2.6.3.6.5v.3l-.1.5c0 .4-.3.5-.5.5s-.5-.3-.8-1c-.2-.2-.4-.8-.5-1.2v-.1-.2M75.2 68.9l-.7.7-.4.7-.2.1a.3.3 0 0 1-.4-.3V69c0-.2 0-.3.2-.4l.7-.2.7-.3.3-.2.2.2v.2l-.4.6M72 71l.4.4.5.1c.2 0 .5 0 .7-.2l.4-.2h.3c.2 0 .4.2.4.6 0 .4-.3 1-.8 1.6l-.3.8c-.3.4-.5.5-.7.5-.4 0-.6-.2-1.2-1.3a4 4 0 0 1-.5-1.7c0-.4.1-.6.4-.6h.4" fill="#261b06"/><path d="M72.4 72.8v.6c0 .3.2.6.5.6s.5-.5.6-1.1v-.5c0-.2 0-.3-.3-.3H72.6c-.2 0-.2.2-.2.6" fill="#fd0"/><path d="M36.3 58.3h3.1v6.4h3.7v-6.3h9.3v6.3h3.7v-6.3h3.1V41.8h-3.6v-.2a2 2 0 0 0-1.8-1c-.7 0-1.3.4-1.7 1.2h-2.6c-.2-.7-1-1.2-1.7-1.2a2 2 0 0 0-1.9 1.2h-2.7c-.5-.9-1-1.2-1.8-1.2s-1.3.4-1.7 1.2h-3.4v16.5" fill="#261b06"/><path d="M37.6 57.1H58v-14H37.6zm0 0" fill="#ef4035"/><path d="M39.7 46.3a1 1 0 1 0 0 2c.6 0 1-.5 1-1s-.4-1-1-1" fill="#fd0"/><path d="M39.7 46.5c-.4 0-.8.3-.8.8s.4.8.8.8c.5 0 .9-.3.9-.8s-.4-.8-.9-.8zm0 1.9a1.1 1.1 0 1 1 0-2.2 1.1 1.1 0 0 1 0 2.2" fill="#231f20"/><path d="M55.7 46.3a1 1 0 0 0-1 1c0 .5.5 1 1 1 .6 0 1-.5 1-1s-.4-1-1-1" fill="#fd0"/><path d="M55.7 46.5c-.4 0-.8.3-.8.8s.4.8.8.8c.5 0 .9-.3.9-.8s-.4-.8-.9-.8zm0 1.9c-.6 0-1-.5-1-1.1a1.1 1.1 0 1 1 1 1" fill="#231f20"/><path d="M39.7 54a1 1 0 0 0-1 .9c0 .5.5 1 1 1 .6 0 1-.5 1-1s-.4-1-1-1" fill="#fd0"/><path d="M39.7 54c-.4 0-.8.4-.8.9s.4.8.9.8c.4 0 .8-.3.8-.8s-.4-.8-.9-.8zm0 2c-.6 0-1-.5-1-1.1a1.1 1.1 0 1 1 2.1 0 1 1 0 0 1-1 1" fill="#231f20"/><path d="M55.7 54a1 1 0 0 0 0 2 1 1 0 1 0 0-2" fill="#fd0"/><path d="M55.7 54a.8.8 0 1 0 0 1.7.8.8 0 0 0 0-1.6zm0 2a1.1 1.1 0 1 1 0-2.2 1.1 1.1 0 0 1 0 2.2" fill="#231f20"/><path d="M42.8 51c1.3 1.6 3 2.4 5 2.4 1.9 0 3.2-.6 4.7-2.4-1.5-1.6-3-2.3-4.8-2.3-2 0-3.7.9-5 2.3" fill="#fd0"/><path d="M43.8 51a5.7 5.7 0 0 1 7.8 0 5 5 0 0 1-4 1.7c-1.4 0-2.7-.6-3.9-1.7" fill="#241a04"/><path d="M45.4 50.7a4 4 0 0 0 4.6 0c-.8-.4-1.6-.6-2.4-.6-.8 0-1.5.2-2.2.6" fill="#fd0"/><path d="M37.3 44.6h21v-.8h-21zm0 0" fill="#241a04"/><path d="M37.4 44.5h20.8V44H37.4zm21 .1H37.2v-.8h21zm0 0" fill="#231f20"/><path d="M40.6 43v2c0 .4.3.8.8.8.6 0 .9-.3.9-.9v-2c0-.7-.3-1.2-.8-1.2l-.4.1-.2.2-.2.2-.1.4M46.9 44.6v.3c0 .5.3.9.8.9.6 0 .9-.3.9-.9v-2c0-.7-.3-1.2-.8-1.2-.6 0-1 .5-1 1.2M53 43v2c0 .4.3.8.8.8.6 0 1-.3 1-.9v-2c0-.7-.4-1.2-.9-1.2l-.4.1-.2.2-.2.2-.1.4M40.1 62.3H42v-2.5h-1.9zm0 0M40.1 63.6H42v-.8h-1.9zm0 0M53 62.3h2v-2.5h-2zm0 0M53 63.6h2v-.8h-2zm0 0" fill="#fd0"/><path d="M157.8 2v1.5h-1c-1.4 0-3.8 0-3.8 4.5v18.3c0 11.2-4.9 16.7-14.9 16.7-11.3 0-16.6-4.5-16.6-14.2V8c0-4.5-2.4-4.5-4.5-4.5h-.5V2.1h17v1.4h-.5c-2.1 0-4.7 0-4.7 4.5v19.8c0 8.6 3.5 12.7 10.9 12.7 7.1 0 10.9-4.4 10.9-12.9V8c0-4.5-2.5-4.5-4.3-4.5h-.9V2.1h13M176.1 40.6v1.5h-14.3v-1.5h.6c4.7 0 5.3-3.5 5.3-7.6V9c0-3.8-2.3-5.5-5.4-5.5h-.5V2.1h11.3l24.3 29.8V9.2c0-5.1-3.6-5.7-5.1-5.7h-1V2.1h14.4v1.4h-.6c-2.6 0-5.3.6-5.3 7.6v31.2h-2L170 9V33c0 4 .6 7.6 5.4 7.6M252.8 33.6L261.6 9c1.5-4.2.5-5.5-3.1-5.5h-.7V2.1H269v1.4h-.2c-1.2 0-2.7.4-3.8 3.2l-13.3 35.6h-2.6L234.8 7c-1.2-3-2.5-3.5-5-3.5h-.3V2.1H246v1.4h-1c-2.9 0-3.4 1.8-2.6 4l10.4 26.1M319.6 4v17.7h3.4c6.2 0 9-2.8 9-9.3 0-5.3-3.4-8.7-8.6-8.7-1.2 0-2.8.1-3.8.3zm6.1-2c8.9 0 13.3 3.3 13.3 10 0 5.8-4.5 8.6-8 10l-.2.2 9.8 14.9c1.5 2.4 2.8 3.4 5.5 3.5v1.5H336l-12-18.8h-4.4v12.5c0 4.5 2 4.8 4.9 4.8h.8v1.5h-17.4v-1.5h.8c2 0 4.2-.8 4.2-3.3V8.2c0-4.7-2.8-4.7-4.2-4.7h-.8V2.1h17.9M367.3 34.5c0-4.9-4.2-6.8-8.1-8.8-4.6-2.4-9.8-4.9-9.8-12.2 0-7.2 5.4-11.8 13.2-11.8 3.2 0 6.8.6 8.4 1l.5 7.7-1.5.2c-.7-4-2.8-7.2-7.4-7.2-4.3 0-7.6 2.7-7.6 7.4 0 4.6 4.2 6.4 8 8.4 4.8 2.4 10.3 4.8 10.3 12.3 0 8.2-7.4 12-14.2 12-2.7 0-6.4-.6-9.4-2.3l-1-8.7 1.5-.2c1 5.7 4.7 9 9.5 9 4.6 0 7.6-2.8 7.6-6.8M395.8 2v1.5h-.5c-2.3 0-4.4.5-4.4 3.6v30c0 3.1 2 3.5 4.4 3.5h.5v1.5h-16.7v-1.5h.6c2.3 0 4.4-.4 4.4-3.5v-30c0-3.1-2.1-3.6-4.4-3.6h-.6V2.1h16.7M227.2 2v1.5h-.6c-2.3 0-4.4.5-4.4 3.6v30c0 3.1 2.1 3.5 4.4 3.5h.6v1.5h-16.7v-1.5h.5c2.3 0 4.4-.4 4.4-3.5v-30c0-3.1-2.1-3.6-4.4-3.6h-.5V2.1h16.7" fill="#fff"/><g clip-path="url(#b)"><path d="M560.3 59.9l.1 10.6-1.7.4c-.4-4.6-1.4-8.4-8.8-8.4h-10v19.6h8.6c4.2 0 5.3-2.3 5.8-6.4h1.7v16.4h-1.7c-.3-3.9-1.2-6.9-5.8-6.9h-8.6v17.2c0 5 4.3 5 8.9 5 8.2 0 12-.5 14.3-8.8l1.7.4-2.3 11h-37.3v-1.8h.7c2.9 0 5.5-.5 5.5-4.4V66.1c0-3.8-2.6-4.4-5.5-4.4h-.7V60h35" fill="#fff"/></g><path d="M349.5 62.2v22.3h4.3c7.8 0 11.3-3.5 11.3-11.7 0-6.6-4.3-10.9-10.7-10.9-1.5 0-3.5.1-4.9.3zm7.7-2.3c11.1 0 16.7 4 16.7 12.5 0 7.1-5.6 10.7-10 12.5l-.3.2 12.3 18.7c2 3 3.6 4.2 7 4.4v1.9h-13l-14.8-23.6h-5.6v15.6c0 5.7 2.5 6.1 6 6.1h1v1.9h-21.8v-1.9h1c2.5 0 5.3-1 5.3-4.2V67.5c0-5.8-3.4-5.8-5.3-5.8h-1V60h22.5M406.9 59.9v1.8h-.7c-2.9 0-5.5.5-5.5 4.4v37.7c0 3.9 2.6 4.4 5.5 4.4h.7v1.9h-21v-1.9h.7c2.9 0 5.5-.5 5.5-4.4V66.1c0-3.9-2.6-4.4-5.5-4.4h-.7v-1.8h21M404.5 2H431c1.3 0 3-.3 3.3-2h1.3l-1 10.4h-1.4c-.1-2.4-.5-5.9-4.3-5.9h-8.1v31c0 4.7 2.3 5.1 4.9 5.1h.8v1.5h-18.2v-1.5h.8c3 0 5-.2 5-5v-31h-8.3c-4.1 0-4.5 1.7-5.3 5.8H399L400 0h1.1c.6 1.7 2 2 3.4 2M476.5 2v1.6c-2.3 0-3.7 1.7-4.7 3.1l-10.2 15.7v12.8c0 5 1.9 5.4 5 5.4h.8v1.5H449v-1.5h.9c3.2 0 4.9-.8 4.9-5V23.4l-11-15.7c-1.7-2.4-3-4-5.7-4h-.3V2h16.5v1.4h-.5c-3.2 0-3.4 1.7-2 3.6l8.5 13.3 7.6-12c1.7-2.6 2.2-4.9-2-4.9h-.7V2.1h11.2M496.1 20.4c0 9.8 4.4 20.5 14 20.5 8.7 0 13-6.1 13-18.6 0-9.2-5-19-14-19-12 0-13 13-13 17zm-7.4 2c0-11.9 9-21.2 20.5-21.2 12.6 0 21.3 8.1 21.3 19.8 0 12.7-8.8 22-21 22a20 20 0 0 1-20.8-20.6M553 42v-1.4h-.6c-2.6 0-5.6 0-5.6-3.5V22.3h7.1c4.1 0 4.7 3.1 4.7 5.7h1.4V15h-1.4c0 2.1-.5 4.7-3.8 4.7h-8V4.2h9.1c4.8 0 5.6 3.3 6 6.7l1.3-.3L563 2h-28v1.4h.6c2.2 0 4.4.5 4.4 3.6v30c0 3.1-2.2 3.5-4.4 3.5h-.6v1.5h17.8M119.7 85c0-7.5 3-14.9 8.2-19.5a27 27 0 0 1 18.4-6.8c6.4 0 11.7 1.2 17 3.6l.5 11.6-1.6.2c-2-6.7-5-12.9-15.7-12.9-11 0-17.7 8.7-17.7 22.6 0 12.4 5.5 24.1 18.7 24.1a20 20 0 0 0 16.9-8l1.3 2.5a24 24 0 0 1-19.5 9c-16.2 0-26.5-9.5-26.5-26.5M228 69.6l-1.7 31c-.3 6.9 1.8 7.5 6.4 7.6h.4v1.9h-16.9v-1.9h.7c5.7-.2 6-3.4 6.3-8l2-31.7c.2-4.4-2.2-6.8-6.2-6.8h-.6v-1.9h14.3l17 38 16.1-38h14v1.9h-.3c-5.6 0-6.6 1.7-6.2 8.8l2 33.3c.2 4 2.3 4.3 6.1 4.4v1.8h-20.8v-1.8h.1c3.4-.2 5.9-.3 5.9-3.7l-.1-3.6-1.5-32.1-17.4 41.6H246l-18.2-40.8M429.5 62.3v39.4c0 5.3 2.3 6.2 7.6 6.2 12.7 0 18.5-11 18.5-21.7 0-16.6-6.9-24.2-21-24.2-1.2 0-3.9.1-5 .3zM414.8 110v-1.9h.7c2.8 0 5.5-.5 5.5-4.4V66c0-3.9-2.7-4.4-5.5-4.4h-.7v-1.8h22.4c8.4 0 15.3 2 20.2 6.6a24.3 24.3 0 0 1 7.4 18.3c0 7-2.8 13.9-7.7 18.7a26 26 0 0 1-18.7 6.6h-23.6M507.5 107.5V95.2c0-2.7-2-4.1-5.7-4.1h-.5v-1.8h19.3V91h-.6c-2.7 0-4.2 1.4-4.2 4V109a58.8 58.8 0 0 1-17.6 2.6c-16.6 0-27.3-10.7-27.3-27.3 0-17.7 14.1-25.8 27.4-25.8 6 0 12 1.2 16 2.5l.8 12-1.7.1c-2.1-8.6-6-12-14.6-12-11.7 0-18.7 8.6-18.7 22.4 0 12.7 6 25.3 19.3 25.3 3 .1 6.2-.4 8.1-1.2M313.6 82.7c6.3.5 9.7 1.9 12.5 4.8 2.2 2.2 3.3 5 3.3 8.4 0 7.8-7.2 14.2-16.6 14.2h-24.6v-1.9h1c2.4 0 5.3-1.1 5.3-4.2V67.5c0-5.8-3.4-5.8-5.3-5.8h-1V60h22.3c10.5 0 16.2 3.8 16.2 11 0 7.9-7 10.8-13.1 11.8m-10.3-21V82h3.8c6.9 0 10.7-3.4 10.7-9.8 0-7-3.4-10.4-10-10.4zm0 22.4v17.6c0 5 1.5 6.3 6.6 6.3 6.2 0 10.8-5 10.8-11.8 0-7.8-4.7-12.1-12.6-12.1h-4.8M187 70.1l7 19.6h-14zm1-10.2l-16 43.3c-1.2 3-3.3 5-6.3 5h-.2v1.9h15.3v-2h-.7c-3.7 0-6.2-1.1-4.6-5.9l3.7-10H195l4 11c1 3.4-.4 5-4.2 5h-.4v1.9h19.4v-1.9h-.1c-2.6 0-4.4-1.3-5.6-4.8L191.7 60H188M299.8 2l.1 8.5-1.3.4c-.3-3.7-1.2-6.7-7-6.7h-8v15.6h6.8c3.3 0 4.2-1.9 4.6-5h1.4v13H295c-.2-3.1-1-5.5-4.6-5.5h-6.8V36c0 4 3.4 4 7 4 6.6 0 9.6-.4 11.4-7l1.4.3-1.9 8.8h-29.7v-1.5h.6c2.3 0 4.4-.4 4.4-3.5V7c0-3.1-2.1-3.6-4.4-3.6h-.6V2.1h28" fill="#fff"/></svg>